<svg width="30" height="31" viewBox="0 0 30 31" fill="none" xmlns="http://www.w3.org/2000/svg">
<g opacity="1" clip-path="url(#clip0)">
<path d="M6.88749 14.2083H0.637471C0.292471 14.2083 0.0124512 14.4977 0.0124512 14.8542V30.3542C0.0124512 30.7106 0.292471 31 0.637471 31H6.88749C7.23249 31 7.51251 30.7106 7.51251 30.3541V14.8541C7.51245 14.4976 7.23372 14.2083 6.88749 14.2083Z" fill="white"/>
<path d="M18.1126 0H11.8626C11.5176 0 11.2375 0.289353 11.2375 0.645854V30.3542C11.2375 30.7107 11.5176 31.0001 11.8626 31.0001H18.1126C18.4576 31.0001 18.7376 30.7107 18.7376 30.3542V0.645854C18.7376 0.289353 18.4576 0 18.1126 0Z" fill="white"/>
<path d="M29.3626 6.45834H23.1126C22.7676 6.45834 22.4875 6.7477 22.4875 7.1042V30.3542C22.4875 30.7107 22.7676 31.0001 23.1126 31.0001H29.3626C29.7076 31.0001 29.9876 30.7107 29.9876 30.3542V7.1042C29.9876 6.74764 29.7076 6.45834 29.3626 6.45834Z" fill="white"/>
</g>
<defs>
<clipPath id="clip0">
<rect width="30" height="31" fill="white"/>
</clipPath>
</defs>
</svg>
